<?xml version="1.0" encoding="utf-8"?>
<!-- Generator: Adobe Illustrator 25.0.1, SVG Export Plug-In . SVG Version: 6.00 Build 0)  -->
<svg version="1.1" id="Layer_1" xmlns="http://www.w3.org/2000/svg" xmlns:xlink="http://www.w3.org/1999/xlink" x="0px" y="0px"
	 viewBox="0 0 700 160" style="enable-background:new 0 0 700 160;" xml:space="preserve">
<style type="text/css">
	.st0{fill:none;}
	.st1{fill:#FFFFFF;}
	.st2{fill:#37CF75;}
</style>
<rect class="st0" width="700" height="160"/>
<g>
	<g>
		<g>
			<path class="st1" d="M406.35,40.93c-2.6,0.86-5.22,1.68-7.9,2.4c-26.82,7.19-53.9,5.82-78.4-2.38l-4.76,30.35l9.63,2.58
				l8.86-16.27c2.38,0.48,4.77,0.9,7.17,1.27l2.76,18.31l9.93,0.87l5.9-17.55c2.42,0.06,4.85,0.06,7.28-0.01l5.9,17.56l9.93-0.87
				l2.77-18.34c2.38-0.36,4.77-0.79,7.15-1.27l8.88,16.3l9.63-2.58L406.35,40.93z"/>
			<path class="st1" d="M387.03,78.15l-8.88,16.3c-2.39-0.48-4.77-0.91-7.15-1.27l-2.77-18.34l-9.93-0.87l-5.9,17.56
				c-2.44-0.06-4.86-0.06-7.28-0.01l-5.9-17.55l-9.93,0.87l-2.76,18.31c-2.41,0.36-4.8,0.79-7.17,1.27l-8.86-16.27l-9.63,2.58
				l4.76,30.35c24.49-8.21,51.58-9.57,78.4-2.38c2.68,0.72,5.3,1.53,7.9,2.4l4.76-30.36L387.03,78.15z"/>
		</g>
		<g>
			<path class="st1" d="M462.37,59.85c0,0-4.29-5.63-13.45-5.63c-9.16,0-21.16,5.22-21.16,21.78c0,16.57,12,21.94,21.16,21.94
				c9.16,0,12.09-4.71,13.45-7.03c0,10.07-9.24,14.97-20.92,9.19l-5.22,11.31c15.04,7.6,37.26,5.85,37.26-20.43V55.25h-9.56
				L462.37,59.85z M451.27,86.12c-3.71,0-9.31-2.56-9.31-10.11c0-7.55,5.6-10.11,9.31-10.11s9.31,2.56,9.31,10.11
				C460.58,83.56,454.98,86.12,451.27,86.12z"/>
			<path class="st1" d="M597.01,62.05l-2.31-6.8h-9.56l0,41.68h13.26c0,0,0-15.16,0-20.98c0-7.26,6.3-10.71,12.96-8.13l5.48-11.87
				C602.86,49.77,597.01,62.05,597.01,62.05z"/>
			<path class="st1" d="M575.34,55.25h-9.56l-1.56,4.6c0,0-4.29-5.63-13.45-5.63c-9.16,0-21.16,6.14-21.16,21.78
				c0,15.52,12,21.94,21.16,21.94c10.75,0,13.45-7.03,13.45-7.03v6.01h11.12l0-5.93V55.25z M553.11,86.12
				c-3.71,0-9.31-2.56-9.31-10.11c0-7.55,5.6-10.11,9.31-10.11c3.71,0,9.31,2.56,9.31,10.11C562.42,83.56,556.82,86.12,553.11,86.12
				z"/>
			<path class="st1" d="M503.45,53.3c-16.3,0-24.72,11.57-24.72,22.36s7.56,23.65,23.53,23.65c15.97,0,21.41-10.44,22.25-12.12
				l-8.75-5.71c-1.71,2.73-5.9,5.99-11.28,5.99c-4.39,0-9.32-2.85-10.98-7.82h31.32C525.74,67.77,519.75,53.3,503.45,53.3z
				 M494.1,70.62c1.62-3.37,4.81-5.59,8.98-5.59c6.14,0,8.14,5.59,8.14,5.59H494.1z"/>
		</g>
	</g>
	<g>
		<g>
			<path class="st2" d="M151.98,33.55l-9.5,0.57c-3.99,0.31-7.97,0.65-11.95,1.01c-15.91,1.53-31.75,3.82-47.37,7.08
				c15.87-1.72,31.72-3.19,47.6-4.16c3.97-0.2,7.94-0.4,11.91-0.64l9.31-0.35V33.55z"/>
			<path class="st2" d="M226.33,35.12c-3.98-0.36-7.96-0.7-11.95-1l-9.5-0.57v3.52l9.31,0.35c3.97,0.24,7.94,0.44,11.91,0.64
				c15.88,0.97,31.73,2.43,47.6,4.15C258.07,38.93,242.24,36.65,226.33,35.12z"/>
		</g>
		<g>
			<path class="st2" d="M169.84,30.24h-4.16v10.98h-4.03V30.24h-4.16v-3.42h12.35V30.24z"/>
			<path class="st2" d="M183.91,26.82v14.4h-4.03v-5.56h-4.29v5.56h-4.03v-14.4h4.03v5.42h4.29v-5.42H183.91z"/>
			<path class="st2" d="M190.38,30.24v1.91h5.98v3.42h-5.98v2.22h7.56v3.42h-11.59v-14.4h11.59v3.42H190.38z"/>
		</g>
		<path class="st2" d="M83.15,121.12c15.63-3.27,31.46-5.55,47.37-7.08c3.98-0.35,7.96-0.7,11.95-1l11.97-0.72l11.99-0.41
			l11.99-0.16l11.99,0.16l11.99,0.41l11.97,0.72c3.99,0.31,7.97,0.65,11.95,1c15.91,1.53,31.75,3.82,47.37,7.09
			c-15.87-1.72-31.72-3.18-47.6-4.15c-3.97-0.19-7.94-0.4-11.91-0.64l-11.92-0.45l-11.92-0.29l-11.92-0.08l-11.92,0.07l-11.92,0.29
			l-11.92,0.45c-3.97,0.24-7.94,0.44-11.91,0.64C114.87,117.94,99.02,119.4,83.15,121.12z"/>
		<path class="st2" d="M142.97,63.85c-0.95-2.25-2.39-4.14-4.33-5.66c-4.19-3.25-10.47-4.54-18.82-3.66
			c-9.42,1-18.83,2.25-28.21,3.73c0,0,3.19,16.51,0,43.23c9.38-1.49,18.78-2.73,28.21-3.73c8.46-0.9,14.79-3.19,18.96-7.09
			c1.9-1.79,3.32-3.86,4.23-6.2c0.92-2.34,1.37-4.92,1.37-7.74c0-1.74,0-3.48,0-5.23C144.38,68.65,143.91,66.1,142.97,63.85z
			 M128.84,76.86c0,2.93-0.79,5.25-2.37,6.96c-1.75,1.88-4.39,2.99-7.9,3.37c-3.64,0.4-7.28,0.83-10.91,1.29c0-5.01,0-10.03,0-15.04
			l-11.82-5.06c3.94-0.59,7.88-1.14,11.82-1.65c1.12-0.14,2.24-0.28,3.36-0.42c2.51-0.31,5.01-0.6,7.52-0.87
			c3.74-0.41,6.5,0.28,8.25,2.02c1.37,1.39,2.06,3.32,2.06,5.78C128.84,74.44,128.84,75.65,128.84,76.86z"/>
		<path class="st2" d="M188.64,51.49c-6.82-0.12-13.64-0.12-20.46,0.01c-0.25,0.01-0.51,0.01-0.76,0.02
			c-7.84,23.27-19.23,43.92-19.23,43.94c5.53-0.3,11.05-0.52,16.59-0.66c0.17-0.43,0.34-0.87,0.5-1.3l0,0l-7.65-5.93
			c3.35-0.13,6.71-0.22,10.07-0.29c1.62-0.03,3.23-0.06,4.85-0.07c3.62-0.04,7.23-0.05,10.85-0.02c1.62,0.01,3.23,0.03,4.85,0.06
			c0.04,0,0.09,0,0.13,0c3.31,0.06,6.63,0.14,9.94,0.26l-7.51,5.99v0c0.16,0.42,0.33,0.84,0.49,1.26
			c5.53,0.12,11.06,0.33,16.59,0.62C207.87,95.37,196.48,74.75,188.64,51.49z M184.39,76.96c-4.23-0.04-8.46-0.04-12.69,0.02
			c1.78-4.56,3.57-9.11,5.35-13.65c-1.78-0.41-3.57-0.81-5.35-1.2c1.95-0.02,3.9-0.04,5.84-0.04c0.34,0,0.69,0,1.03,0
			c1.94,0,3.88,0.01,5.81,0.03c-1.78,0.4-3.55,0.8-5.33,1.21C180.84,67.86,182.61,72.4,184.39,76.96z"/>
		<path class="st2" d="M264.11,68.71c-1.17-2.72-2.91-5.13-5.2-7.22c-2.29-2.08-5.13-3.8-8.5-5.14c-3.38-1.33-7.24-2.25-11.6-2.72
			c-4.35-0.47-8.22-0.4-11.6,0.19c-3.38,0.59-6.22,1.68-8.53,3.25c-2.31,1.57-4.05,3.6-5.25,6.07c-1.19,2.48-1.79,5.35-1.79,8.63
			c0,1.49,0,2.99,0,4.48c0,3.27,0.59,6.22,1.79,8.83c1.19,2.62,2.94,4.85,5.25,6.73c2.3,1.9,5.14,3.43,8.51,4.62
			c3.37,1.19,7.24,2,11.59,2.48c4.34,0.47,8.19,0.48,11.57,0.01c3.38-0.48,6.22-1.41,8.53-2.82c2.29-1.42,4.03-3.29,5.21-5.63
			c1.18-2.34,1.77-5.11,1.77-8.33c0-1.49,0-2.99,0-4.48C265.87,74.41,265.28,71.43,264.11,68.71z M250.41,75.22
			c0,1.63,0,3.25,0,4.88c0,1.64-0.33,3.02-0.98,4.14c-0.66,1.12-1.56,2-2.72,2.64c-1.07,0.59-2.28,0.98-3.66,1.18
			c-1.38,0.19-2.8,0.21-4.26,0.05c-1.47-0.16-2.88-0.48-4.25-0.97c-1.37-0.49-2.59-1.15-3.65-1.97c-1.16-0.89-2.07-1.97-2.71-3.23
			c-0.65-1.27-0.97-2.72-0.97-4.35c-0.01-1.63-0.02-3.26-0.03-4.88c0-1.64,0.33-3.04,0.99-4.2l-7.44-5.75
			c6.03,0.46,12.05,1.01,18.07,1.66c1.75,0.19,3.5,0.41,5.25,0.61l-0.01-0.02l1.35,0.18c3.81,0.46,7.62,0.94,11.43,1.48l-7.35,4.18
			C250.09,72.14,250.41,73.59,250.41,75.22z"/>
	</g>
</g>
</svg>
