<svg width="18" height="36" viewBox="0 0 18 36" fill="none" xmlns="http://www.w3.org/2000/svg">
<path d="M18 6.06004C18 5.91771 17.9313 5.78437 17.8157 5.70171L11.1317 0.927374C11.046 0.866374 10.9433 0.833374 10.8383 0.833374C10.5593 0.833374 10.3333 1.05937 10.3333 1.33837L10.3333 3.83337L-6.67576e-07 3.83337L-7.8414e-07 6.50004L17.56 6.50004C17.803 6.50004 18 6.30304 18 6.06004Z" fill="white"/>
<path d="M-1.9233e-08 29.94C-2.54546e-08 30.0823 0.0686671 30.2157 0.184334 30.2983L6.86833 35.0727C6.954 35.1337 7.05667 35.1667 7.16167 35.1667C7.44067 35.1667 7.66667 34.9407 7.66667 34.6617L7.66667 32.1667L18 32.1667L18 29.5L0.439999 29.5C0.196999 29.5 -8.61114e-09 29.697 -1.9233e-08 29.94Z" fill="white"/>
</svg>
