<svg width="15" height="15" viewBox="0 0 15 15" fill="none" xmlns="http://www.w3.org/2000/svg">
<path d="M2.8125 4.375C3.67544 4.375 4.375 3.67545 4.375 2.8125C4.375 1.94956 3.67544 1.25 2.8125 1.25C1.94956 1.25 1.25 1.94956 1.25 2.8125C1.25 3.67545 1.94956 4.375 2.8125 4.375Z" stroke="white" stroke-miterlimit="10"/>
<path d="M2.8125 9.0625C3.67544 9.0625 4.375 8.36295 4.375 7.5C4.375 6.63706 3.67544 5.9375 2.8125 5.9375C1.94956 5.9375 1.25 6.63706 1.25 7.5C1.25 8.36295 1.94956 9.0625 2.8125 9.0625Z" stroke="white" stroke-miterlimit="10"/>
<path d="M2.8125 13.75C3.67544 13.75 4.375 13.0504 4.375 12.1875C4.375 11.3246 3.67544 10.625 2.8125 10.625C1.94956 10.625 1.25 11.3246 1.25 12.1875C1.25 13.0504 1.94956 13.75 2.8125 13.75Z" stroke="white" stroke-miterlimit="10"/>
<path d="M5.625 2.8125H13.4375" stroke="white" stroke-miterlimit="10"/>
<path d="M5.625 7.5H13.4375" stroke="white" stroke-miterlimit="10"/>
<path d="M5.625 12.1875H13.4375" stroke="white" stroke-miterlimit="10"/>
</svg>
