<svg width="16" height="15" viewBox="0 0 16 15" fill="none" xmlns="http://www.w3.org/2000/svg">
<g clip-path="url(#clip0_1930_44)">
<path d="M6.55859 8.4375L8.25 12.5195C8.29398 12.6347 8.31482 12.7574 8.31133 12.8806C8.30784 13.0038 8.28008 13.1251 8.22965 13.2376C8.17922 13.3501 8.1071 13.4515 8.01742 13.5361C7.92774 13.6207 7.82227 13.6867 7.70703 13.7305L6.99219 14.0039C6.87704 14.0479 6.75434 14.0687 6.63112 14.0652C6.50791 14.0617 6.38659 14.034 6.27411 13.9836C6.16164 13.9331 6.06021 13.861 5.97564 13.7713C5.89107 13.6816 5.82501 13.5762 5.78125 13.4609L3.74219 8.4375" stroke="white" stroke-miterlimit="10"/>
<path d="M1.4375 6.09375C1.4375 5.47215 1.68443 4.87601 2.12397 4.43647C2.56351 3.99693 3.15965 3.75 3.78125 3.75H8.125L13 0.792969V11.3945L8.12891 8.4375H3.78125C3.15965 8.4375 2.56351 8.19057 2.12397 7.75103C1.68443 7.31149 1.4375 6.71535 1.4375 6.09375V6.09375Z" stroke="white" stroke-miterlimit="10"/>
<path d="M13 4.30847C13.8633 4.30847 14.5625 5.03894 14.5625 5.93738C14.5625 6.83582 13.8633 7.56628 13 7.56628" stroke="white" stroke-miterlimit="10"/>
</g>
<defs>
<clipPath id="clip0_1930_44">
<rect width="15" height="15" fill="white" transform="translate(0.5)"/>
</clipPath>
</defs>
</svg>
